<svg width="20" height="12" viewBox="0 0 20 12" fill="none" xmlns="http://www.w3.org/2000/svg">
<g clip-path="url(#clip0_691_310)">
<path d="M17.5734 0.485006C17.8479 0.20339 18.209 0.0469357 18.5845 0.0625808C18.9601 0.0625808 19.3067 0.219035 19.5812 0.516297C19.8411 0.797913 20 1.18905 20 1.59583C20 2.00261 19.87 2.39374 19.61 2.691L11.4346 11.5463C11.3047 11.6871 11.1458 11.7966 10.9724 11.8748C10.7991 11.9531 10.6113 12 10.4236 12C10.2358 12 10.048 11.9531 9.86024 11.8748C9.68691 11.7966 9.52802 11.6871 9.39802 11.5463L1.22263 2.691C1.09263 2.55019 0.977081 2.37809 0.904861 2.19035C0.83264 1.98696 0.789307 1.78357 0.789308 1.58018C0.789308 1.37679 0.818196 1.15776 0.890417 0.970011C0.962637 0.782267 1.07819 0.610168 1.20819 0.453713C1.33819 0.312905 1.51152 0.203387 1.68485 0.125161C1.85818 0.0312882 2.04595 -1.79298e-06 2.24817 -1.77457e-06C2.43594 -1.75748e-06 2.62372 0.0469343 2.79705 0.125161C2.97037 0.203387 3.12926 0.328551 3.2737 0.485005L10.4236 8.22947L11.7669 6.7588L17.5734 0.485006Z" fill="#181725"/>
</g>
<defs>
<clipPath id="clip0_691_310">
<rect width="12" height="19.2107" fill="white" transform="translate(0.789307 12) rotate(-90)"/>
</clipPath>
</defs>
</svg>
